<?xml version="1.0" encoding="UTF-8" standalone="no"?>
<!DOCTYPE svg PUBLIC "-//W3C//DTD SVG 1.1//EN" "http://www.w3.org/Graphics/SVG/1.1/DTD/svg11.dtd">
<svg width="100%" height="100%" viewBox="0 0 1024 1024" version="1.1" xmlns="http://www.w3.org/2000/svg" xmlns:xlink="http://www.w3.org/1999/xlink" xml:space="preserve" xmlns:serif="http://www.serif.com/" style="fill-rule:evenodd;clip-rule:evenodd;stroke-linejoin:round;stroke-miterlimit:2;">
    <circle cx="512" cy="512" r="512" style="fill:rgb(238,20,41);"/>
    <g transform="matrix(0.658428,0,0,0.658428,195.954,828.046)">
        <path d="M680,-480C624.667,-480 577.5,-499.5 538.5,-538.5C499.5,-577.5 480,-624.667 480,-680C480,-734.667 499.333,-781.667 538,-821C576.667,-860.333 624,-880 680,-880C735.333,-880 782.5,-860.5 821.5,-821.5C860.5,-782.5 880,-735.333 880,-680C880,-624.667 860.5,-577.5 821.5,-538.5C782.5,-499.5 735.333,-480 680,-480ZM660,-640L700,-640L700,-800L660,-800L660,-640ZM680,-560C685.333,-560 690,-562 694,-566C698,-570 700,-574.667 700,-580C700,-585.333 698,-590 694,-594C690,-598 685.333,-600 680,-600C674.667,-600 670,-598 666,-594C662,-590 660,-585.333 660,-580C660,-574.667 662,-570 666,-566C670,-562 674.667,-560 680,-560ZM260,-280C276.667,-280 290.833,-285.833 302.5,-297.5C314.167,-309.167 320,-323.333 320,-340C320,-356.667 314.167,-370.833 302.5,-382.5C290.833,-394.167 276.667,-400 260,-400C243.333,-400 229.167,-394.167 217.5,-382.5C205.833,-370.833 200,-356.667 200,-340C200,-323.333 205.833,-309.167 217.5,-297.5C229.167,-285.833 243.333,-280 260,-280ZM540,-280C556.667,-280 570.833,-285.833 582.5,-297.5C594.167,-309.167 600,-323.333 600,-340C600,-356.667 594.167,-370.833 582.5,-382.5C570.833,-394.167 556.667,-400 540,-400C523.333,-400 509.167,-394.167 497.5,-382.5C485.833,-370.833 480,-356.667 480,-340C480,-323.333 485.833,-309.167 497.5,-297.5C509.167,-285.833 523.333,-280 540,-280ZM160,-80C148.667,-80 139.167,-83.833 131.5,-91.5C123.833,-99.167 120,-108.667 120,-120L120,-202C106.667,-216 96.667,-231.5 90,-248.5C83.333,-265.5 80,-282.667 80,-300L80,-680C80,-739.333 107.5,-780.833 162.5,-804.5C217.5,-828.167 313.667,-840 451,-840C435,-817.333 422.5,-792.5 413.5,-765.5C404.5,-738.5 400,-710 400,-680C400,-672.667 400.167,-665.833 400.5,-659.5C400.833,-653.167 401.667,-646.667 403,-640L160,-640L160,-520L451,-520C476.333,-484 508.833,-455 548.5,-433C588.167,-411 632,-400 680,-400C687.333,-400 694.167,-400.167 700.5,-400.5C706.833,-400.833 713.333,-401.667 720,-403L720,-300C720,-282.667 716.667,-265.5 710,-248.5C703.333,-231.5 693.333,-216 680,-202L680,-120C680,-108.667 676.167,-99.167 668.5,-91.5C660.833,-83.833 651.333,-80 640,-80L600,-80C588.667,-80 579.167,-83.833 571.5,-91.5C563.833,-99.167 560,-108.667 560,-120L560,-160L240,-160L240,-120C240,-108.667 236.167,-99.167 228.5,-91.5C220.833,-83.833 211.333,-80 200,-80L160,-80Z" style="fill:white;fill-rule:nonzero;"/>
    </g>
</svg>
