<?xml version="1.0" encoding="UTF-8" standalone="no"?>
<!DOCTYPE svg PUBLIC "-//W3C//DTD SVG 1.1//EN" "http://www.w3.org/Graphics/SVG/1.1/DTD/svg11.dtd">
<svg width="100%" height="100%" viewBox="0 0 1024 1024" version="1.1" xmlns="http://www.w3.org/2000/svg" xmlns:xlink="http://www.w3.org/1999/xlink" xml:space="preserve" xmlns:serif="http://www.serif.com/" style="fill-rule:evenodd;clip-rule:evenodd;stroke-linejoin:round;stroke-miterlimit:2;">
    <circle cx="512" cy="512" r="512" style="fill:rgb(238,20,41);"/>
    <g transform="matrix(0.658428,0,0,0.658428,258.857,828.046)">
        <g>
            <g>
                <g transform="matrix(0.863636,0,0,0.863636,-92.5662,-65.4554)">
                    <path d="M160,-260L160,-640C160,-704.667 188.333,-747 245,-767C301.667,-787 366.667,-798 440,-800L470,-860L280,-860L280,-920L680,-920L680,-860L550,-860L520,-800C599.333,-798 665.833,-787.167 719.5,-767.5C773.167,-747.833 800,-705.333 800,-640L800,-260C800,-220.667 786.5,-187.5 759.5,-160.5C732.5,-133.5 699.333,-120 660,-120L720,-60L720,-40L640,-40L560,-120L400,-120L320,-40L240,-40L240,-60L300,-120C260.667,-120 227.5,-133.5 200.5,-160.5C173.5,-187.5 160,-220.667 160,-260ZM480,-240C496.667,-240 510.833,-245.833 522.5,-257.5C534.167,-269.167 540,-283.333 540,-300C540,-316.667 534.167,-330.833 522.5,-342.5C510.833,-354.167 496.667,-360 480,-360C463.333,-360 449.167,-354.167 437.5,-342.5C425.833,-330.833 420,-316.667 420,-300C420,-283.333 425.833,-269.167 437.5,-257.5C449.167,-245.833 463.333,-240 480,-240ZM240,-480L720,-480L720,-600L240,-600L240,-480Z" style="fill:white;fill-rule:nonzero;"/>
                </g>
                <g transform="matrix(1.39263,0,0,1.39263,-305.306,-1211.3)">
                    <circle cx="696.36" cy="367.146" r="198.152" style="fill:rgb(238,20,41);"/>
                </g>
            </g>
            <g transform="matrix(1,0,0,1,-15.5341,-20.0009)">
                <path d="M680,-480C624.667,-480 577.5,-499.5 538.5,-538.5C499.5,-577.5 480,-624.667 480,-680C480,-734.667 499.333,-781.667 538,-821C576.667,-860.333 624,-880 680,-880C735.333,-880 782.5,-860.5 821.5,-821.5C860.5,-782.5 880,-735.333 880,-680C880,-624.667 860.5,-577.5 821.5,-538.5C782.5,-499.5 735.333,-480 680,-480ZM680,-560C685.333,-560 690,-562 694,-566C698,-570 700,-574.667 700,-580C700,-585.333 698,-590 694,-594C690,-598 685.333,-600 680,-600C674.667,-600 670,-598 666,-594C662,-590 660,-585.333 660,-580C660,-574.667 662,-570 666,-566C670,-562 674.667,-560 680,-560ZM660,-640L700,-640L700,-800L660,-800L660,-640Z" style="fill:white;"/>
            </g>
        </g>
    </g>
</svg>
